<svg xmlns="http://www.w3.org/2000/svg" width="30.965" height="25.637" viewBox="0 0 30.965 25.637"><g transform="translate(0.3 -2.555)"><ellipse cx="4.65" cy="5.008" rx="4.65" ry="5.008" transform="translate(10.3 7.576)" fill="none" stroke="#4fc3ff" stroke-linecap="round" stroke-linejoin="round" stroke-width="3"/><path d="M22.237,27.619A6.619,6.619,0,1,0,9,27.619Z" transform="translate(-0.436 -0.926)" fill="none" stroke="#4fc3ff" stroke-linecap="round" stroke-linejoin="round" stroke-width="3"/><path d="M23.782,13.455A4.728,4.728,0,1,0,20,5.891" transform="translate(-1.035 0)" fill="none" stroke="#4fc3ff" stroke-linecap="round" stroke-linejoin="round" stroke-width="2.6"/><path d="M24.945,23.619h5.673A6.619,6.619,0,0,0,24,17" transform="translate(-1.253 -0.709)" fill="none" stroke="#4fc3ff" stroke-linecap="round" stroke-linejoin="round" stroke-width="2.6"/><path d="M11.509,5.891a4.728,4.728,0,1,0-3.782,7.564" transform="translate(-0.109 0)" fill="none" stroke="#4fc3ff" stroke-linecap="round" stroke-linejoin="round" stroke-width="2.6"/><path d="M7.619,17A6.619,6.619,0,0,0,1,23.619H6.673" transform="translate(0 -0.709)" fill="none" stroke="#4fc3ff" stroke-linecap="round" stroke-linejoin="round" stroke-width="2.6"/></g></svg>