<svg xmlns="http://www.w3.org/2000/svg" width="32.136" height="31.502" viewBox="0 0 32.136 31.502"><g transform="translate(-1.25 -1.25)"><path d="M8,10h.016" transform="translate(2.954 4.136)" fill="none" stroke="#00e785" stroke-linecap="round" stroke-linejoin="round" stroke-width="4"/><path d="M12,10h.016" transform="translate(5.318 4.136)" fill="none" stroke="#00e785" stroke-linecap="round" stroke-linejoin="round" stroke-width="4"/><path d="M16,10h.016" transform="translate(7.681 4.136)" fill="none" stroke="#00e785" stroke-linecap="round" stroke-linejoin="round" stroke-width="4"/><path d="M31.636,18.909V9.363c0-3,0-4.5-.932-5.432S28.272,3,25.272,3H9.363c-3,0-4.5,0-5.432.932S3,6.364,3,9.363v9.545c0,3,0,4.5.932,5.432s2.432.932,5.432.932h.8a.8.8,0,0,1,.8.8v4.216a.689.689,0,0,0,1.094.557l7.013-5.1a2.446,2.446,0,0,1,1.439-.468h4.773c3,0,4.5,0,5.432-.932S31.636,21.908,31.636,18.909Z" fill="none" stroke="#00e785" stroke-linejoin="round" stroke-width="3.5"/></g></svg>