<svg xmlns="http://www.w3.org/2000/svg" width="124" height="60" viewBox="0 0 124 60">
  <g id="Group_92" data-name="Group 92" transform="translate(4749 -1148)">
    <rect id="Rectangle_19" data-name="Rectangle 19" width="124" height="60" transform="translate(-4749 1148)" fill="none"/>
    <g id="Dukaan_logo_2" data-name="Dukaan_logo 2" transform="translate(-4748.865 1160.698)">
      <path id="Path_230" data-name="Path 230" d="M110.969,19.109V35.755a.545.545,0,0,1-.6.6h-2.08a.549.549,0,0,1-.6-.6v-.9a5,5,0,0,1-4.138,1.848,6.436,6.436,0,0,1-6.222-6.719,6.454,6.454,0,0,1,6.222-6.724,5,5,0,0,1,4.138,1.848v-6a.549.549,0,0,1,.6-.609h2.08a.549.549,0,0,1,.6.613ZM107.68,29.983a3.533,3.533,0,1,0-3.533,3.533A3.533,3.533,0,0,0,107.68,29.983Z" transform="translate(-55.589 -10.563)"/>
      <path id="Path_231" data-name="Path 231" d="M143.275,30.406a.549.549,0,0,1,.6.609V42.558a.545.545,0,0,1-.6.6H141.2a.545.545,0,0,1-.6-.6V41.85a3.893,3.893,0,0,1-3.469,1.655c-2.376,0-4.147-1.822-4.147-4.948V31.015a.549.549,0,0,1,.6-.609h2.08a.549.549,0,0,1,.6.609V38.3a1.908,1.908,0,0,0,2.024,2.144c1.286,0,2.3-.746,2.3-2.663V31.015a.549.549,0,0,1,.6-.609Z" transform="translate(-75.953 -17.366)"/>
      <path id="Path_232" data-name="Path 232" d="M173.634,36.365h-2.423a.832.832,0,0,1-.729-.369l-4.189-5.39v5.146a.549.549,0,0,1-.6.6h-2.08a.545.545,0,0,1-.613-.6V19.115a.549.549,0,0,1,.6-.609h2.08a.549.549,0,0,1,.6.609v10.1l3.936-5.236a.815.815,0,0,1,.725-.373h2.444c.5,0,.665.326.364.733l-4.288,5.574,4.524,5.707C174.3,36.035,174.144,36.365,173.634,36.365Z" transform="translate(-93.1 -10.569)"/>
      <path id="Path_233" data-name="Path 233" d="M195.917,29.61c2.822,0,5.193,1.677,5.193,5v7.5a.545.545,0,0,1-.6.6h-2a.549.549,0,0,1-.609-.6v-.5a4.2,4.2,0,0,1-3.456,1.445c-2.268,0-4.288-1.329-4.288-4.009s2.028-4.014,4.288-4.014a5.03,5.03,0,0,1,3.456,1.132V34.8c0-1.514-.763-2.144-1.977-2.144a1.806,1.806,0,0,0-1.887,1.089c-.133.347-.266.545-.63.545h-2.028a.545.545,0,0,1-.6-.635c.317-2.607,2.551-4.048,5.146-4.048Zm1.977,9.434c0-.982-.892-1.587-2.337-1.587s-2.144.669-2.144,1.587.678,1.587,2.144,1.587S197.894,39.961,197.894,39.044Z" transform="translate(-108.613 -16.913)"/>
      <path id="Path_234" data-name="Path 234" d="M225.007,29.61c2.822,0,5.193,1.677,5.193,5v7.5a.545.545,0,0,1-.6.6h-2a.549.549,0,0,1-.609-.6v-.5a4.221,4.221,0,0,1-3.456,1.462c-2.268,0-4.288-1.329-4.288-4.009s2.028-4.014,4.288-4.014a5.03,5.03,0,0,1,3.456,1.132V34.8c0-1.514-.763-2.144-1.977-2.144a1.806,1.806,0,0,0-1.887,1.089c-.133.347-.266.545-.63.545h-2.041a.545.545,0,0,1-.6-.635c.317-2.607,2.551-4.048,5.146-4.048Zm1.977,9.434c0-.982-.892-1.587-2.337-1.587s-2.144.669-2.144,1.587.678,1.587,2.144,1.587S226.984,39.961,226.984,39.044Z" transform="translate(-125.229 -16.913)"/>
      <path id="Path_235" data-name="Path 235" d="M255.437,29.61c2.371,0,4.142,1.822,4.142,4.948v7.547a.545.545,0,0,1-.6.6H256.9a.545.545,0,0,1-.6-.6v-7.29a1.91,1.91,0,0,0-2.024-2.144c-1.286,0-2.3.746-2.3,2.667v6.767a.545.545,0,0,1-.6.6h-2.08a.545.545,0,0,1-.6-.6V30.562a.549.549,0,0,1,.6-.609h2.08a.549.549,0,0,1,.6.609v.7A3.9,3.9,0,0,1,255.437,29.61Z" transform="translate(-142.04 -16.913)"/>
      <path id="Path_236" data-name="Path 236" d="M38.2,28.192a6.475,6.475,0,0,1-12.911,0,1.329,1.329,0,1,1,2.65-.206,3.821,3.821,0,0,0,7.615,0,1.327,1.327,0,0,1,2.646.206Z" transform="translate(-14.44 -15.285)" fill="#146eb4"/>
      <path id="Path_237" data-name="Path 237" d="M17.3,0A17.3,17.3,0,1,0,34.6,17.3,17.3,17.3,0,0,0,17.3,0Zm9.232,23.854a2.539,2.539,0,0,1-2.521,2.539H10.6a2.543,2.543,0,0,1-2.539-2.539V10.75A2.539,2.539,0,0,1,10.6,8.216H24.013a2.539,2.539,0,0,1,2.534,2.534Z" transform="translate(0 0)" fill="#146eb4"/>
      <g id="surface1" transform="translate(117.57 6.402)">
        <path id="Path_238" data-name="Path 238" d="M277.323,14.93a3.147,3.147,0,1,0,2.228.92,3.147,3.147,0,0,0-2.228-.92Zm0,.48a2.663,2.663,0,1,1-1.884.781A2.667,2.667,0,0,1,277.323,15.41Zm-.969,1.214v2.907h.485V18.463h.63l.682,1.068h.485l-.7-1.106.219-.06a.768.768,0,0,0,.339-.214.6.6,0,0,0,.167-.292,1.317,1.317,0,0,0,.047-.313,1.579,1.579,0,0,0-.047-.317.614.614,0,0,0-.167-.287.669.669,0,0,0-.339-.219,1.286,1.286,0,0,0-.562-.1Zm.485.386h.63a1,1,0,0,1,.266,0,.429.429,0,0,1,.227.094.571.571,0,0,1,.176.142.429.429,0,0,1,.069.266.523.523,0,0,1-.069.274.653.653,0,0,1-.176.176l-.24.073a.858.858,0,0,1-.266.021h-.63Z" transform="translate(-274.18 -14.93)"/>
      </g>
    </g>
  </g>
</svg>
