<svg xmlns="http://www.w3.org/2000/svg" width="121" height="60" viewBox="0 0 121 60">
  <g id="Group_90" data-name="Group 90" transform="translate(5170 -1148)">
    <rect id="Rectangle_36" data-name="Rectangle 36" width="121" height="60" transform="translate(-5170 1148)" fill="none"/>
    <g id="Gojek_Logo_Horizondal" transform="translate(-5865.441 -46.705)">
      <path id="Path_270" data-name="Path 270" d="M1120.8,1673.038a5.138,5.138,0,1,1,5.138,5.138,5.139,5.139,0,0,1-5.138-5.138" transform="translate(-416.436 -448.086)" fill="#00aa13"/>
      <path id="Path_271" data-name="Path 271" d="M709.5,1243a13.7,13.7,0,0,0-5.289,26.338,2.654,2.654,0,0,0,.991.2,2.569,2.569,0,0,0,.993-4.939v0a8.564,8.564,0,1,1,6.613,0v0a2.569,2.569,0,0,0,.989,4.937,2.655,2.655,0,0,0,.991-.2A13.7,13.7,0,0,0,709.5,1243" transform="translate(0 -31.747)" fill="#00aa13"/>
      <g id="Group_89" data-name="Group 89" transform="translate(730.045 1210.6)">
        <path id="Path_272" data-name="Path 272" d="M2396.214,1450.143l3.232-2.684a6.21,6.21,0,0,0,5.429,2.654c2.5,0,4.39-1.616,4.39-3.812v-1.159h-.06a6.9,6.9,0,0,1-5.215,1.953,8.449,8.449,0,1,1-.153-16.894,7.321,7.321,0,0,1,5.368,1.89h.06V1430.5h4.33v15.735c0,4.574-3.6,7.746-8.721,7.746C2401.155,1453.985,2398.135,1452.643,2396.214,1450.143Zm12.87-10.581v-1.89c0-1.86-2.043-3.506-4.39-3.506-2.958,0-4.879,1.8-4.879,4.421,0,2.835,1.8,4.544,4.7,4.544C2407.071,1443.128,2409.084,1441.545,2409.084,1439.562Z" transform="translate(-2395.3 -1425.775)"/>
        <path id="Path_273" data-name="Path 273" d="M3418.8,1431.238c0-4.818,3.813-8.538,9.118-8.538,5.336,0,9.118,3.72,9.118,8.538s-3.782,8.537-9.118,8.537C3422.611,1439.775,3418.8,1436.056,3418.8,1431.238Zm13.722,0a4.6,4.6,0,1,0-4.6,4.574A4.377,4.377,0,0,0,3432.522,1431.238Z" transform="translate(-3398.177 -1418.426)"/>
        <path id="Path_274" data-name="Path 274" d="M4230.3,1463.727h2.44c1.312,0,1.769-.488,1.769-1.646V1445.4h4.514v16.741c0,4-1.616,5.7-5.917,5.7h-2.8l0-4.117Z" transform="translate(-4193.324 -1440.669)"/>
        <path id="Path_275" data-name="Path 275" d="M4778.6,1431.17c0-4.971,3.66-8.57,8.784-8.57a8.364,8.364,0,0,1,8.783,8.691v1.281h-13.113c.153,2.1,1.86,3.446,4.574,3.446a6.444,6.444,0,0,0,4.971-2.41l2.805,2.8a9.817,9.817,0,0,1-7.746,3.262C4781.986,1439.677,4778.6,1436.292,4778.6,1431.17Zm13.174-1.769c-.214-1.89-1.89-3.141-4.3-3.141-2.44,0-4.117,1.249-4.361,3.141Z" transform="translate(-4730.577 -1418.328)"/>
        <path id="Path_276" data-name="Path 276" d="M5765.7,1210.6h4.514v11.226h.06l7.289-6.5h6.313l-7.593,6.587,7.9,9.575h-5.52l-5.4-6.831h-.06l-2.991,2.531v4.3H5765.7Z" transform="translate(-5697.786 -1210.6)"/>
      </g>
    </g>
  </g>
</svg>
