<svg xmlns="http://www.w3.org/2000/svg" width="242.636" height="68.803" viewBox="0 0 242.636 68.803">
  <g id="HubSpot_Logo" transform="translate(0 0.002)">
    <path id="Path_212" data-name="Path 212" d="M26.278,4.974v19.4H8.456V4.974H0V51.283H8.458V32.513H26.276v18.77h8.46V4.974Zm35.53,31.341a7,7,0,0,1-14,0V16.479H39.788V36.315a15.007,15.007,0,1,0,30.014,0V16.479H61.808Zm59.448-17.793c0-4.068,2.69-5.356,5.636-5.356,2.376,0,5.512,1.808,7.565,4l5.253-6.194c-2.623-3.548-7.943-6-12.3-6-8.705,0-15,5.1-15,13.549,0,15.68,19.164,10.7,19.164,19.48,0,2.706-2.628,5.1-5.636,5.1-4.745,0-6.283-2.319-8.463-4.773l-5.832,6.064c3.731,4.578,8.332,6.9,13.842,6.9,8.27,0,14.922-5.159,14.922-13.226,0-17.406-19.166-12-19.166-19.544M239.814,43.885c-4.741,0-6.089-2.051-6.089-5.192V24.788H241.1V17.742h-7.371v-9.3L225.59,12.1V40.422c0,7.245,5,10.9,11.853,10.9a16.745,16.745,0,0,0,3.209-.256l1.985-7.307c-.895.062-1.923.124-2.822.124M92.348,16.71a12.326,12.326,0,0,0-9.431,3.784V5.251H74.883V33.5c0,10.575,7.645,17.822,16.238,17.822,9.531,0,17.916-7.375,17.916-17.305A17,17,0,0,0,92.348,16.717M92.3,43.24a9.118,9.118,0,1,1,9.118-9.118A9.118,9.118,0,0,1,92.3,43.24M179.606,33.6c0-9.948-8.366-17.305-17.916-17.305-8.591,0-16.238,7.245-16.238,17.822V62.387h8.034V47.124a12.332,12.332,0,0,0,9.426,3.784A17.006,17.006,0,0,0,179.6,33.6M172,33.5a9.118,9.118,0,1,1-9.118-9.118A9.118,9.118,0,0,1,172,33.5" transform="translate(0 6.414)" fill="#33475b"/>
    <path id="Path_213" data-name="Path 213" d="M117.806,22.321V14.247a6.217,6.217,0,0,0,3.585-5.6V8.458a6.217,6.217,0,0,0-6.217-6.217h-.185a6.217,6.217,0,0,0-6.217,6.217v.185a6.217,6.217,0,0,0,3.585,5.6v8.073a17.6,17.6,0,0,0-8.371,3.685L81.843,8.76a6.932,6.932,0,0,0,.25-1.744,7,7,0,1,0-7.014,6.991,6.929,6.929,0,0,0,3.45-.939l21.8,16.966a17.66,17.66,0,0,0,.27,19.892L93.971,56.56a5.863,5.863,0,1,0,3.83,3.83l6.56-6.563a17.69,17.69,0,1,0,13.446-31.506m-2.719,26.553a18.9,18.9,0,1,1,.009,0" transform="translate(87.762 0)" fill="#ff7a59"/>
  </g>
</svg>
