<svg xmlns="http://www.w3.org/2000/svg" width="33.469" height="33.509" viewBox="0 0 33.469 33.509"><g transform="translate(-3 -2.959)"><path d="M31.191,4.809S24.845,12.7,18.891,12.7H7.172A1.172,1.172,0,0,0,6,13.875v7.031a1.172,1.172,0,0,0,1.172,1.172H18.891c5.955,0,12.3,7.927,12.3,7.927a1.069,1.069,0,0,0,1.762-.72V5.525A1.042,1.042,0,0,0,31.191,4.809Z" transform="translate(-0.328 0)" fill="none" stroke="#f9b4ff" stroke-linecap="round" stroke-linejoin="round" stroke-width="3"/><path d="M5.672,22.688S4.5,22.248,4.5,20.344,5.672,18,5.672,18" transform="translate(0 -2.953)" fill="none" stroke="#f9b4ff" stroke-linecap="round" stroke-linejoin="round" stroke-width="3"/><path d="M42,22.16a1.694,1.694,0,0,0,0-3.223" transform="translate(-8.203 -3.158)" fill="none" stroke="#f9b4ff" stroke-linecap="round" stroke-linejoin="round" stroke-width="3"/><path d="M24,15v9.375" transform="translate(-4.266 -2.297)" fill="none" stroke="#f9b4ff" stroke-linecap="round" stroke-linejoin="round" stroke-width="3"/><path d="M10.5,15v9.375" transform="translate(-1.312 -2.297)" fill="none" stroke="#f9b4ff" stroke-linecap="round" stroke-linejoin="round" stroke-width="3"/><path d="M13.5,27V39.3a.586.586,0,0,0,.586.586h3.882a1.172,1.172,0,0,0,1.12-1.518c-.614-1.969-2.072-4.189-2.072-7.857h1.172a1.172,1.172,0,0,0,1.172-1.172V28.172A1.172,1.172,0,0,0,18.188,27H17.016" transform="translate(-1.969 -4.922)" fill="none" stroke="#f9b4ff" stroke-linecap="round" stroke-linejoin="round" stroke-width="3"/></g></svg>