<svg xmlns="http://www.w3.org/2000/svg" width="96" height="60" viewBox="0 0 96 60">
  <g id="Group_105" data-name="Group 105" transform="translate(1689 -1148)">
    <rect id="Rectangle_37" data-name="Rectangle 37" width="96" height="60" transform="translate(-1689 1148)" fill="none"/>
    <path id="mivi-logo" d="M.053,14.483l7.188,5.681V30.777H0ZM70.981,30.673l1.859-4.642.009.019L83.279.039h-.016l-8-.039h-.019Q72.963,5.723,70.68,11.43L68.83,16.042l.009.019-1.868,4.69C64.229,13.821,61.479,6.921,58.7,0L50.692.039,63,30.777Zm-32.962.1H45.26V0H38.019Zm50.692,0h7.242V0H88.711Zm-72.5-17.469L32.588,0V10.265c-5.478,4.455-10.874,8.813-16.354,13.27Q8.14,16.909,0,10.325V.087Zm16.38,1.176V30.777H25.346V20.24Q28.976,17.371,32.588,14.483Z" transform="translate(-1689 1162.611)" fill="lime" fill-rule="evenodd"/>
  </g>
</svg>
