<svg xmlns="http://www.w3.org/2000/svg" width="29.326" height="26.899" viewBox="0 0 29.326 26.899"><g transform="translate(-0.25 -0.2)"><line x2="9.747" transform="translate(13.699 12.436)" fill="none" stroke="#ffda6e" stroke-linecap="round" stroke-miterlimit="10" stroke-width="2.5"/><line x2="9.747" transform="translate(13.699 17.303)" fill="none" stroke="#ffda6e" stroke-linecap="round" stroke-miterlimit="10" stroke-width="2.5"/><path d="M26.736,11.11V24.523l-3.653-3.666H12.11A4.867,4.867,0,0,1,7.383,17.2a4.816,4.816,0,0,1-.153-1.277V11.11a4.88,4.88,0,0,1,4.88-4.88h9.747a4.88,4.88,0,0,1,4.88,4.88Z" transform="translate(1.589 1.326)" fill="none" stroke="#ffda6e" stroke-linejoin="round" stroke-miterlimit="10" stroke-width="2.5"/><path d="M21.006,6.33V7.607H13.7a4.88,4.88,0,0,0-4.88,4.88V16.14H5.153L1.5,19.743V6.33A4.88,4.88,0,0,1,6.38,1.45H16.19a4.88,4.88,0,0,1,4.816,4.88Z" transform="translate(0 0)" fill="none" stroke="#ffda6e" stroke-linejoin="round" stroke-miterlimit="10" stroke-width="2.5"/></g></svg>