<svg xmlns="http://www.w3.org/2000/svg" xmlns:xlink="http://www.w3.org/1999/xlink" width="128.109" height="60" viewBox="0 0 128.109 60">
  <defs>
    <clipPath id="clip-path">
      <rect id="Rectangle_10" data-name="Rectangle 10" width="128.109" height="31.097" fill="none"/>
    </clipPath>
  </defs>
  <g id="Group_91" data-name="Group 91" transform="translate(4963.109 -1148)">
    <rect id="Rectangle_18" data-name="Rectangle 18" width="128" height="60" transform="translate(-4963 1148)" fill="none"/>
    <g id="Group_37" data-name="Group 37" transform="translate(-4963.109 1162.952)">
      <g id="Group_36" data-name="Group 36" clip-path="url(#clip-path)">
        <path id="Path_214" data-name="Path 214" d="M10.7,159.412V158.2a9.421,9.421,0,0,0-6.674,17.057A9.42,9.42,0,0,1,10.7,159.412" transform="translate(0 -147.167)" fill="#25f4ee"/>
        <path id="Path_215" data-name="Path 215" d="M110.9,25.975a4.308,4.308,0,0,0,4.3-4.144L115.2,1.3h3.75a7.13,7.13,0,0,1-.121-1.3h-5.123l-.008,20.53a4.3,4.3,0,0,1-6.3,3.649,4.3,4.3,0,0,0,3.491,1.795" transform="translate(-99.977 -0.001)" fill="#25f4ee"/>
        <path id="Path_216" data-name="Path 216" d="M323.348,88.62V87.479a7.083,7.083,0,0,1-3.881-1.154,7.13,7.13,0,0,0,3.881,2.3" transform="translate(-297.364 -80.352)" fill="#25f4ee"/>
        <path id="Path_217" data-name="Path 217" d="M277.428,23.461a7.1,7.1,0,0,1-1.753-4.673H274.3a7.141,7.141,0,0,0,3.125,4.673" transform="translate(-255.324 -17.488)" fill="#fe2c55"/>
        <path id="Path_218" data-name="Path 218" d="M78.345,180.716a4.3,4.3,0,0,0-2,8.118,4.291,4.291,0,0,1,4.761-6.619v-5.23a9.407,9.407,0,0,0-1.271-.092c-.075,0-.148,0-.223.006v4.016a4.241,4.241,0,0,0-1.271-.2" transform="translate(-68.916 -164.654)" fill="#fe2c55"/>
        <path id="Path_219" data-name="Path 219" d="M80.137,119.5v3.981a12.184,12.184,0,0,1-7.127-2.292V131.6a9.421,9.421,0,0,1-14.832,7.72A9.423,9.423,0,0,0,74.5,132.9V122.49a12.183,12.183,0,0,0,7.127,2.292V119.66a7.124,7.124,0,0,1-1.493-.159" transform="translate(-54.153 -111.233)" fill="#fe2c55"/>
        <path id="Path_220" data-name="Path 220" d="M38.946,37.856V27.446a12.183,12.183,0,0,0,7.127,2.292V25.756a7.13,7.13,0,0,1-3.881-2.3,7.141,7.141,0,0,1-3.125-4.673h-3.75l-.008,20.53a4.3,4.3,0,0,1-7.789,2.35,4.3,4.3,0,0,1,2-8.118,4.238,4.238,0,0,1,1.271.2V29.733a9.42,9.42,0,0,0-6.674,15.843,9.421,9.421,0,0,0,14.832-7.72" transform="translate(-20.089 -17.488)"/>
        <path id="Path_221" data-name="Path 221" d="M470.412,119.744h16.006l-1.47,4.579-4.152,0v16.931h-5.174V124.322l-5.206.01Z" transform="translate(-437.865 -111.459)"/>
        <path id="Path_222" data-name="Path 222" d="M1080.73,119.744h16.376l-1.47,4.579-4.515,0v16.931h-5.182V124.322l-5.206.01Z" transform="translate(-1005.956 -111.459)"/>
        <path id="Path_223" data-name="Path 223" d="M715.864,218.624H721l-.006,14.667h-5.1Z" transform="translate(-666.334 -203.498)"/>
        <path id="Path_224" data-name="Path 224" d="M819.451,118.869h5.126v10.017l5.08-4.985h6.12l-6.426,6.236,7.2,10.3H830.9l-4.8-7.144-1.52,1.477v5.667h-5.126Z" transform="translate(-762.755 -110.645)"/>
        <path id="Path_225" data-name="Path 225" d="M1604.488,118.869h5.126v10.017l5.08-4.985h6.12l-6.426,6.236,7.2,10.3h-5.648l-4.8-7.144-1.52,1.477v5.667h-5.126Z" transform="translate(-1493.476 -110.645)"/>
        <path id="Path_226" data-name="Path 226" d="M720.759,122.315a2.583,2.583,0,1,1-2.583-2.583,2.583,2.583,0,0,1,2.583,2.583" transform="translate(-666.082 -111.448)"/>
        <path id="Path_227" data-name="Path 227" d="M1288.342,185.593a8.779,8.779,0,0,1,8.092-8.751c-.227-.018-.537-.029-.769-.029a8.78,8.78,0,1,0,0,17.56c.232,0,.542-.012.769-.029a8.779,8.779,0,0,1-8.092-8.751" transform="translate(-1197.848 -164.58)" fill="#25f4ee"/>
        <path id="Path_228" data-name="Path 228" d="M1443.293,176.813c-.234,0-.546.012-.775.03a8.777,8.777,0,0,1,0,17.5c.229.018.541.03.775.03a8.78,8.78,0,0,0,0-17.56" transform="translate(-1342.713 -164.58)" fill="#fe2c55"/>
        <path id="Path_229" data-name="Path 229" d="M1315.547,189.861a4.268,4.268,0,1,1,4.268-4.268,4.268,4.268,0,0,1-4.268,4.268m0-13.048a8.78,8.78,0,1,0,8.78,8.78,8.78,8.78,0,0,0-8.78-8.78" transform="translate(-1216.354 -164.58)"/>
      </g>
    </g>
  </g>
</svg>
