<?xml version="1.0" encoding="UTF-8"?><svg id="Layer_2" xmlns="http://www.w3.org/2000/svg" viewBox="0 0 319.03 108.5"><defs><style>.cls-1{fill:#00e785;}.cls-2{fill:#1d1d1b;}</style></defs><g id="Layer_1-2"><g><g><path class="cls-2" d="M158.84,73.97l-13.24-41.78h14.35l7.86,30.33-4.27,.09,9.23-30.42h13.33l9.31,30.42-4.27-.09,7.95-30.33h14.35l-13.24,41.78h-13.41l-8.89-28.79h3.33l-9.14,28.79h-13.24Z"/><path class="cls-2" d="M234.71,74.83c-3.93,0-7.39-.94-10.38-2.82s-5.35-4.46-7.09-7.73c-1.74-3.27-2.61-7.02-2.61-11.23s.87-7.87,2.61-11.15c1.74-3.27,4.11-5.85,7.13-7.73,3.02-1.88,6.44-2.82,10.25-2.82,2.68,0,5.1,.47,7.26,1.41,2.16,.94,3.94,2.25,5.34,3.93,1.4,1.68,2.24,3.63,2.52,5.85v21.02c-.34,2.22-1.21,4.19-2.61,5.89-1.4,1.71-3.18,3.03-5.34,3.97-2.17,.94-4.53,1.41-7.09,1.41Zm3.16-13.24c2.45,0,4.41-.8,5.89-2.39,1.48-1.59,2.22-3.64,2.22-6.15,0-1.59-.34-3.03-1.03-4.31-.68-1.28-1.62-2.29-2.82-3.03-1.2-.74-2.59-1.11-4.19-1.11s-3.01,.37-4.23,1.11c-1.23,.74-2.19,1.75-2.91,3.03-.71,1.28-1.07,2.72-1.07,4.31s.34,3.12,1.02,4.4,1.65,2.29,2.9,3.03c1.25,.74,2.65,1.11,4.19,1.11Zm7.6,12.39v-11.28l2.14-10.08-2.14-10.17v-10.25h14.7v41.78h-14.7Z"/><path class="cls-2" d="M265.29,44.58v-12.39h33.32v12.39h-33.32Zm9.14,29.39V14.93h14.95v59.04h-14.95Z"/><path class="cls-2" d="M311.26,27.41c-2.28,0-4.16-.78-5.64-2.35-1.48-1.57-2.22-3.46-2.22-5.68s.74-4.1,2.22-5.64c1.48-1.54,3.36-2.31,5.64-2.31s4.07,.77,5.55,2.31c1.48,1.54,2.22,3.42,2.22,5.64s-.74,4.12-2.22,5.68c-1.48,1.57-3.33,2.35-5.55,2.35Zm-7.6,46.56V32.19h14.95v41.78h-14.95Z"/></g><path class="cls-1" d="M36.56,86.33h37.13l22.19,22.17v-22.17h9.48c11.31,0,20.56-9.25,20.56-20.56v-29.2c0-11.31-9.25-20.56-20.56-20.56H36.56c-11.31,0-20.56,9.25-20.56,20.56v29.2c0,11.31,9.25,20.56,20.56,20.56Z"/><path class="cls-2" d="M83.9,102.17l-23.86-23.84H24.56c-13.54,0-24.56-11.02-24.56-24.56V24.56C0,11.02,11.02,0,24.56,0H93.36c13.54,0,24.56,11.02,24.56,24.56v29.2c0,13.54-11.02,24.56-24.56,24.56h-9.48v-8h9.48c9.13,0,16.56-7.43,16.56-16.56V24.56c0-9.13-7.43-16.56-16.56-16.56H24.56c-9.13,0-16.56,7.43-16.56,16.56v29.2c0,9.13,7.43,16.56,16.56,16.56H63.35l20.62,20.6-.07,11.24Z"/></g></g></svg>