<svg xmlns="http://www.w3.org/2000/svg" width="26.371" height="26.371" viewBox="0 0 26.371 26.371">
  <g id="data-2-svgrepo-com_1_" data-name="data-2-svgrepo-com (1)" transform="translate(-0.5 -0.5)">
    <path id="Path_291" data-name="Path 291" d="M7.843,9.011H4.337A2.344,2.344,0,0,1,2,6.674V4.337A2.344,2.344,0,0,1,4.337,2H7.843A2.344,2.344,0,0,1,10.18,4.337V6.674A2.344,2.344,0,0,1,7.843,9.011Z" fill="none" stroke="#69e48e" stroke-linecap="round" stroke-linejoin="round" stroke-width="3"/>
    <path id="Path_292" data-name="Path 292" d="M21.609,7.674H17.4a1.406,1.406,0,0,1-1.4-1.4V4.4A1.406,1.406,0,0,1,17.4,3h4.207a1.406,1.406,0,0,1,1.4,1.4v1.87A1.406,1.406,0,0,1,21.609,7.674Z" transform="translate(2.36 0.169)" fill="none" stroke="#69e48e" stroke-linecap="round" stroke-linejoin="round" stroke-width="3"/>
    <path id="Path_293" data-name="Path 293" d="M21.609,15.174H17.4a1.406,1.406,0,0,1-1.4-1.4V11.9a1.406,1.406,0,0,1,1.4-1.4h4.207a1.406,1.406,0,0,1,1.4,1.4v1.87A1.406,1.406,0,0,1,21.609,15.174Z" transform="translate(2.36 1.433)" fill="none" stroke="#69e48e" stroke-linecap="round" stroke-linejoin="round" stroke-width="3"/>
    <path id="Path_294" data-name="Path 294" d="M9,5h8.18" transform="translate(1.18 0.506)" fill="none" stroke="#69e48e" stroke-linecap="round" stroke-linejoin="round" stroke-miterlimit="10" stroke-width="3"/>
    <path id="Path_295" data-name="Path 295" d="M12.5,5V20.191a2.344,2.344,0,0,0,2.337,2.337H16.59" transform="translate(1.77 0.506)" fill="#fff"/>
    <path id="Path_296" data-name="Path 296" d="M12.5,5V20.191a2.344,2.344,0,0,0,2.337,2.337H16.59" transform="translate(1.77 0.506)" fill="none" stroke="#69e48e" stroke-linecap="round" stroke-linejoin="round" stroke-miterlimit="10" stroke-width="3"/>
    <path id="Path_297" data-name="Path 297" d="M12.5,12.5h4.09" transform="translate(1.77 1.77)" fill="none" stroke="#69e48e" stroke-linecap="round" stroke-linejoin="round" stroke-miterlimit="10" stroke-width="3"/>
    <path id="Path_298" data-name="Path 298" d="M21.609,22.674H17.4a1.406,1.406,0,0,1-1.4-1.4V19.4A1.406,1.406,0,0,1,17.4,18h4.207a1.406,1.406,0,0,1,1.4,1.4v1.87A1.406,1.406,0,0,1,21.609,22.674Z" transform="translate(2.36 2.697)" fill="none" stroke="#69e48e" stroke-linecap="round" stroke-linejoin="round" stroke-width="3"/>
  </g>
</svg>
