<svg xmlns="http://www.w3.org/2000/svg" width="86" height="60" viewBox="0 0 86 60">
  <g id="Group_103" data-name="Group 103" transform="translate(2177.149 -1148)">
    <rect id="Rectangle_32" data-name="Rectangle 32" width="86" height="60" transform="translate(-2177.149 1148)" fill="none"/>
    <g id="_062f62ff" data-name="#062f62ff" transform="translate(-2177.154 1131.417)">
      <path id="path6" d="M26.325,50.273Q35.394,34.4,44.462,18.52,42.768,29.39,41.07,40.259c-.008.076-.081.118-.125.174Q29.368,52.829,17.79,65.223,22.049,57.743,26.325,50.273Z" transform="translate(0 -0.087)" fill="#062f62"/>
      <path id="path8" d="M826.34,18.43q13.352,23.355,26.694,46.716-5.32-5.675-10.629-11.362L829.77,40.271a.49.49,0,0,1-.05-.2Q828.032,29.249,826.34,18.43Z" transform="translate(-781.275 0)" fill="#062f62"/>
      <path id="path10" d="M97.092,979.74c.231-.25.445-.516.685-.757,1.5-.007,3.01,0,4.515,0q-3.906,7.157-7.825,14.307-4.719,0-9.437,0Q91.063,986.515,97.092,979.74Z" transform="translate(-64.972 -928.147)" fill="#062f62"/>
      <path id="path12" d="M575.553,978.988q3.94,0,7.88,0,.349,2.381.7,4.761h-2.607q0,4.773,0,9.546-4.128,0-8.255,0c.4-1.371.817-2.736,1.223-4.1q.812-2.708,1.621-5.415h-2.666Q574.5,981.384,575.553,978.988Z" transform="translate(-536.742 -928.156)" fill="#062f62"/>
      <path id="path14" d="M928.62,978.922a2.5,2.5,0,0,1,.9-.073q3.272,0,6.544,0c1.286,1.437,2.564,2.881,3.85,4.319q-2.669,0-5.338,0a.531.531,0,0,0-.449.746c.54,1.012,1.09,2.019,1.632,3.03a1.382,1.382,0,0,0,1.216.8h6.307c.231,0,.462-.007.692,0q2.4,2.7,4.793,5.4-7.972,0-15.943,0a4.134,4.134,0,0,1-.705-.018,1.79,1.79,0,0,1-1.322-.99,3.805,3.805,0,0,1-.224-.75q-1.375-5.515-2.752-11.031A1.264,1.264,0,0,1,928.62,978.922Z" transform="translate(-879.311 -928.017)" fill="#062f62"/>
      <path id="path16" d="M398.969,1506.248a2.4,2.4,0,0,1,1.788-.606,2.087,2.087,0,0,1,1.11.444c.1.073.242.162.36.078.152-.128.106-.367.254-.5.045.027.11.047.1.114.01.662.008,1.326.033,1.988a.7.7,0,0,1-.036.274c-.047-.015-.111-.019-.122-.078a8.693,8.693,0,0,0-.345-.938,3.192,3.192,0,0,0-.473-.742,1.392,1.392,0,0,0-.88-.477,1.338,1.338,0,0,0-1.224.47,2.333,2.333,0,0,0-.342.924,12.3,12.3,0,0,0-.135,1.515,5.023,5.023,0,0,0,.232,1.874,1.493,1.493,0,0,0,.668.814,1.687,1.687,0,0,0,1.14.079,1.634,1.634,0,0,0,1.063-.759,2.591,2.591,0,0,0,.32-1.239.53.53,0,0,1,.236,0,.332.332,0,0,1,.028.14,3.623,3.623,0,0,1-.192.912,1.76,1.76,0,0,1-1.259,1.09,2.637,2.637,0,0,1-1.216.041A3.157,3.157,0,0,1,398.8,1511a1.459,1.459,0,0,1-.329-.374,5.321,5.321,0,0,1-.411-.766,3.1,3.1,0,0,1,.006-2.252A3.71,3.71,0,0,1,398.969,1506.248Z" transform="translate(-367.242 -1437.034)" fill="#062f62"/>
      <path id="path18" d="M1406.7,1506.707a2.056,2.056,0,0,1,.376-.021.165.165,0,0,1,.129.173q0,2.5,0,4.993c-.006.171-.012.386.153.49a1.5,1.5,0,0,0,.658.079c.038.052.046.146-.038.151-.5.033-1.01.052-1.515.077-.093.01-.212-.022-.231-.126-.015-.168,0-.337-.008-.5-.016-.022-.032-.043-.047-.062a2.8,2.8,0,0,1-.352.371,1.5,1.5,0,0,1-1.281.31,1.773,1.773,0,0,1-1.131-.873,2.419,2.419,0,0,1-.216-1.893,2.229,2.229,0,0,1,1.022-1.277,1.56,1.56,0,0,1,1.188-.162,1.505,1.505,0,0,1,.79.619c.053-.082.024-.18.027-.27,0-.472,0-.945,0-1.417a.38.38,0,0,0-.239-.358,2.525,2.525,0,0,0-.644-.069c0-.054-.017-.124.051-.14.436-.03.872-.063,1.308-.091m-1.741,1.89a.9.9,0,0,0-.538.536,3.652,3.652,0,0,0-.231,1.371,5.3,5.3,0,0,0,.09.981,1.481,1.481,0,0,0,.329.707.807.807,0,0,0,.8.216.856.856,0,0,0,.438-.333,2.292,2.292,0,0,0,.362-1.085,3.848,3.848,0,0,0-.13-1.553,1.468,1.468,0,0,0-.48-.732A.72.72,0,0,0,1404.956,1508.6Z" transform="translate(-1338.572 -1438.049)" fill="#062f62"/>
      <path id="path20" d="M814.157,1508.524a.57.57,0,1,1-.417.6A.573.573,0,0,1,814.157,1508.524Z" transform="translate(-769.097 -1439.809)" fill="#062f62"/>
      <path id="path22" d="M1141.952,1508.513a.57.57,0,1,1-.42.473A.565.565,0,0,1,1141.952,1508.513Z" transform="translate(-1085.828 -1439.798)" fill="#062f62"/>
      <path id="path24" d="M1185.219,1509.632c.009-.111.2-.107.206,0,0,.494,0,.988,0,1.482a.119.119,0,0,0,.125.135c.35.006.7-.006,1.05.005a.112.112,0,0,1,.033.206c-.35,0-.7-.007-1.049,0a.166.166,0,0,0-.159.193c0,1.012,0,2.025,0,3.038a.516.516,0,0,0,.243.491.651.651,0,0,0,.779-.17,1.386,1.386,0,0,0,.235-.863.238.238,0,0,1,.047-.149c.049.008.117-.012.148.042s.017.138.016.207a1.553,1.553,0,0,1-.414,1.028,1.047,1.047,0,0,1-.722.277,1.721,1.721,0,0,1-.9-.194.858.858,0,0,1-.431-.738q0-1.451,0-2.9c-.009-.083,0-.19-.073-.245a.987.987,0,0,0-.312-.019c-.116-.01-.246.037-.347-.037,0-.072.014-.176.108-.169a1.238,1.238,0,0,0,1.155-.7A3.184,3.184,0,0,0,1185.219,1509.632Z" transform="translate(-1126.569 -1440.821)" fill="#062f62"/>
      <path id="path26" d="M214.811,1512h5.053c0,.768.005,1.537,0,2.3.007.107-.129.128-.191.06a4.4,4.4,0,0,0-.552-1.61,1.013,1.013,0,0,0-.574-.5,2.115,2.115,0,0,0-.591-.052.272.272,0,0,0-.08.233q0,2.36,0,4.721a.33.33,0,0,0,.195.324,5.218,5.218,0,0,0,.909.146c.014.075-.017.165-.11.149-1.035,0-2.07,0-3.105,0-.053,0-.121.006-.152-.047,0-.027,0-.083,0-.11a3.194,3.194,0,0,0,1-.221c.091-.049.2-.122.194-.239q0-2.4,0-4.793c.005-.067-.02-.161-.1-.166a1.277,1.277,0,0,0-.74.138,1.933,1.933,0,0,0-.592.784,5.137,5.137,0,0,0-.376,1.22c-.033.083-.132.062-.188.016Q214.811,1513.178,214.811,1512Z" transform="translate(-190.374 -1443.184)" fill="#062f62"/>
      <path id="path28" d="M85.5,1512.982c-.008-.06-.01-.152.074-.147q1.419,0,2.838,0c.085-.007.08.087.074.146a3.637,3.637,0,0,0-.793.158.284.284,0,0,0-.161.275q0,2.294,0,4.589a.3.3,0,0,0,.213.289,3.3,3.3,0,0,0,.692.118.091.091,0,0,1,.045.127c-.042.053-.114.04-.174.044-.9,0-1.8,0-2.7,0a.1.1,0,0,1-.111-.136c.056-.059.145-.037.217-.052a2.219,2.219,0,0,0,.546-.109.3.3,0,0,0,.191-.28q0-2.3,0-4.591a.3.3,0,0,0-.2-.294A4.969,4.969,0,0,0,85.5,1512.982Z" transform="translate(-65.415 -1443.994)" fill="#062f62"/>
      <path id="path30" d="M636.89,1512.932c1-.015,2,0,3-.006a.087.087,0,0,1,.061.16,4.058,4.058,0,0,0-.856.127.341.341,0,0,0-.211.352c0,1.5,0,2.995,0,4.492a.34.34,0,0,0,.253.344,1.926,1.926,0,0,0,.826.064,1.844,1.844,0,0,0,1.087-.4,2.639,2.639,0,0,0,.661-1.529c.016-.074.01-.191.1-.217.093.025.1.134.1.214q0,1,0,1.993a.113.113,0,0,1-.1.136c-1.541.005-3.081.013-4.622.01a1.4,1.4,0,0,1-.3-.013.084.084,0,0,1,.031-.156,2.984,2.984,0,0,0,.7-.124.328.328,0,0,0,.2-.325q0-2.261,0-4.522a.335.335,0,0,0-.229-.329,3.443,3.443,0,0,0-.666-.11A.086.086,0,0,1,636.89,1512.932Z" transform="translate(-598.172 -1444.08)" fill="#062f62"/>
      <path id="path32" d="M875.407,1557.894a1.356,1.356,0,0,1,.726-.263,1.391,1.391,0,0,1,.895.223,1.26,1.26,0,0,1,.433.625.664.664,0,0,0,.086.169c.1-.1.134-.239.225-.343a2.041,2.041,0,0,1,.671-.549,1.549,1.549,0,0,1,1.03-.077,1.11,1.11,0,0,1,.876,1.008c.015.269,0,.538,0,.807-.031.585-.018,1.171-.048,1.755a.325.325,0,0,0,.155.334,2.525,2.525,0,0,0,.609.136.329.329,0,0,1,0,.142c-.463.017-.927,0-1.39.008-.4-.005-.792.009-1.188-.008a.281.281,0,0,1,0-.142,3.106,3.106,0,0,0,.6-.121.289.289,0,0,0,.18-.282c.009-.809,0-1.619,0-2.427a1.294,1.294,0,0,0-.081-.667.474.474,0,0,0-.425-.275.9.9,0,0,0-.683.324,2.24,2.24,0,0,0-.522,1.15,4.01,4.01,0,0,0-.045.848c0,.35,0,.7,0,1.05a.292.292,0,0,0,.185.279,3.721,3.721,0,0,0,.555.121.079.079,0,0,1,0,.138.936.936,0,0,1-.2.011c-.754,0-1.508,0-2.263,0-.08.021-.152-.077-.091-.139a2.483,2.483,0,0,0,.667-.171c.142-.1.112-.292.114-.443,0-.81,0-1.619,0-2.428a.92.92,0,0,0-.226-.637.52.52,0,0,0-.5-.068,1.117,1.117,0,0,0-.581.454,2.146,2.146,0,0,0-.358.858,9.443,9.443,0,0,0-.084,1.821c0,.156-.024.361.133.456a2.155,2.155,0,0,0,.621.149l.033.061-.03.081c-.349.019-.7,0-1.048.008-.518,0-1.036.005-1.553,0-.087,0-.085-.1-.039-.154a2.876,2.876,0,0,0,.643-.1.289.289,0,0,0,.208-.291q0-1.5,0-3.009a.3.3,0,0,0-.223-.279,3.316,3.316,0,0,0-.547-.093c-.115-.017-.069-.193.027-.195.507-.019,1.014-.047,1.52-.074a.226.226,0,0,1,.263.181c.025.232-.027.465,0,.7.041.084.1,0,.125-.05A1.637,1.637,0,0,1,875.407,1557.894Z" transform="translate(-826.186 -1487.276)" fill="#062f62"/>
      <path id="path34" d="M1281.963,1557.665a1.914,1.914,0,0,1,1.573.469,1.874,1.874,0,0,1,.494,1.445.1.1,0,0,1-.117.1c-.843,0-1.686.005-2.529.007-.085,0-.112.094-.113.164a2.766,2.766,0,0,0,.167,1.3.974.974,0,0,0,.654.569,1.39,1.39,0,0,0,1.3-.365,1.556,1.556,0,0,0,.39-.789c.009-.062.058-.133.13-.116.115.017.08.16.076.243a1.525,1.525,0,0,1-.9,1.106,2.087,2.087,0,0,1-1.789-.072,2.159,2.159,0,0,1-1.1-1.642,2.224,2.224,0,0,1,1.772-2.418m.108.181a.734.734,0,0,0-.444.3,2.444,2.444,0,0,0-.324,1.131c-.018.1.026.24.148.231.427,0,.855,0,1.282,0,.118,0,.268-.023.309-.153a1.726,1.726,0,0,0,.039-.581,1.116,1.116,0,0,0-.269-.756A.853.853,0,0,0,1282.071,1557.845Z" transform="translate(-1219.799 -1487.293)" fill="#062f62"/>
      <path id="path36" d="M792.908,1559.835c.169,0,.337-.037.506-.023a.174.174,0,0,1,.133.2c0,1.149,0,2.3,0,3.446a.261.261,0,0,0,.192.245,5.206,5.206,0,0,0,.65.121.077.077,0,0,1-.032.147c-.855.005-1.71,0-2.564,0-.084.011-.086-.085-.069-.141.2-.056.4-.105.6-.156a.313.313,0,0,0,.234-.318q0-1.454,0-2.907a.309.309,0,0,0-.2-.3,2.955,2.955,0,0,0-.6-.109c-.06-.017-.043-.084-.052-.129a.787.787,0,0,1,.28-.036C792.3,1559.871,792.6,1559.841,792.908,1559.835Z" transform="translate(-747.819 -1489.384)" fill="#062f62"/>
      <path id="path38" d="M1119.89,1559.779c.359-.026.72-.03,1.079-.06.094-.015.224.031.221.144,0,1.158,0,2.316,0,3.474a.276.276,0,0,0,.175.271,4.438,4.438,0,0,0,.676.13.081.081,0,0,1-.06.148c-.845,0-1.689,0-2.534,0a.077.077,0,0,1-.057-.137c.2-.082.423-.1.628-.176a.307.307,0,0,0,.194-.3q0-1.455,0-2.909a.312.312,0,0,0-.214-.307,2.909,2.909,0,0,0-.579-.1c-.059-.02-.046-.089-.052-.135A2.64,2.64,0,0,1,1119.89,1559.779Z" transform="translate(-1064.412 -1489.295)" fill="#062f62"/>
    </g>
  </g>
</svg>
