<svg xmlns="http://www.w3.org/2000/svg" width="22.658" height="31.229" viewBox="0 0 22.658 31.229">
  <path id="Path_302" data-name="Path 302" d="M4.252,6.214V9H1.4V3.357a2.757,2.757,0,0,1,.831-2.027A2.757,2.757,0,0,1,4.252.5L18.405.566a2.817,2.817,0,0,1,2.027.8,2.649,2.649,0,0,1,.831,1.993V9H18.405V6.214ZM16.146,22.626l-1.993-1.993,4.518-4.518L14.153,11.6,16.146,9.6l6.512,6.512ZM8.5,20.633,6.512,22.626,0,16.114,6.512,9.6,8.5,11.6,3.987,16.114Zm9.9,5.382V23.224h2.857v5.648a2.836,2.836,0,0,1-2.857,2.857H4.252A2.757,2.757,0,0,1,2.226,30.9,2.757,2.757,0,0,1,1.4,28.872V23.224H4.252v2.791Z" transform="translate(0 -0.5)" fill="#f9b4ff"/>
</svg>
